<svg xmlns="http://www.w3.org/2000/svg" xml:space="preserve" width="20" height="69" data-id="lg_sZVrrwpxW28YbmiGrK" data-version="1" viewBox="0 0 2000 69"><g data-padding="20"><g transform="translate(10 1.239)scale(.9641)"><rect width="579.768" height="72.32" x="488.107" y="-37.045" fill="none" rx="0" ry="0" transform="matrix(.96 0 0 .96 280 35.35)"/><path d="M821.739 7.716h24.883q-1.344 5.779-2.67 11.52-1.323 5.75-2.667 11.52-1.354 5.779-2.68 11.52-1.314 5.75-2.61 11.52h-28.57l-3.686-23.098q0-.058-.03-.096l-.028-.029h-.028q-.04 0-.068.029-.028.038-.028.096l-3.63 23.098H773.27q-1.104-4.608-2.218-9.216-1.104-4.608-2.237-9.216-1.142-4.608-2.246-9.216t-2.237-9.216q-1.142-4.608-2.246-9.216h26.17q.498 3.139.96 6.297.46 3.168.92 6.298.462 3.139.95 6.297.49 3.168.923 6.298h.307l3.437-25.19h18.499l3.62 25.19h.124q.922-6.326 1.872-12.595.95-6.26 1.872-12.595m49.824 32.198q3.254 0 5.04-1.171 1.776-1.162 1.843-3.187l18.979 6.201q-1.104 3.869-4.694 7.037-3.6 3.158-9.063 5.002-5.472 1.843-12.23 1.843-5.78 0-10.781-1.287-5.011-1.286-8.784-3.897-3.782-2.611-5.933-6.547t-2.15-9.159 2.15-9.149q2.15-3.936 5.933-6.547 3.773-2.611 8.813-3.897 5.04-1.296 10.752-1.296 5.837 0 10.723 1.296 4.886 1.286 8.42 3.964 3.532 2.67 5.462 6.759 1.939 4.08 1.939 9.677H864.43v.057q0 .922.499 1.719.49.796 1.382 1.382.884.586 2.208.893t3.044.307m-.125-10.502q-3.015 0-4.973 1.075-1.968 1.075-1.968 3.033v.125h13.757q.067 0 .067-.029v-.096q0-.979-.528-1.747-.518-.768-1.44-1.286-.922-.528-2.18-.807-1.257-.268-2.735-.268m31.277-11.492V32.6q2.764-1.776 6.45-2.698t7.306-.921q2.333 0 4.455.432 2.12.422 3.753 1.315 1.623.893 2.573 2.275.96 1.382.96 3.283v.557q-.921-1.229-2.371-2.208-1.44-.989-3.254-1.66-1.815-.682-3.84-1.018t-4.176-.336q-3.322 0-5.904.643-2.573.643-4.455 1.814-1.872 1.171-3.1 2.707-1.23 1.536-1.844 3.255t-.614 3.504q0 2.947 1.229 5.155 1.228 2.218 3.35 3.686 2.122 1.479 4.79 2.247 2.679.768 5.559.768 2.4 0 4.829-.461 2.428-.46 4.636-1.565 1.287-3.014 2.612-6.029 1.324-3.004 2.61-6.019-.738 1.786-2.15 2.218-1.41.422-2.515.422-2.275 0-3.504-.95t-1.23-2.123q0-1.161 1.2-2.083 1.19-.922 3.534-.922 1.037 0 2.083.279 1.047.269 1.786.95.74.672.74 1.776v12.903h21.503V29.959q0-4.051-2.217-7.066-2.208-3.005-5.99-5.04-3.774-2.025-8.574-3.005-4.79-.988-9.945-.988-5.29 0-10.541 1.017-5.251 1.018-9.734 3.043m70.665 35.876h-21.264V7.716h21.264v28.147Zm39.868-21.38h-16.214q.73-2.822 1.44-5.587t1.41-5.558q.71-2.803 1.384-5.568h11.98Zm-37.296 5.348V15.588l21.015-5.04v21.561q0 1.171.528 2.026.518.864 1.469 1.45t2.246.892q1.286.307 2.89.307 1.776 0 3.619-.556t3.35-1.536 2.18-2.276v18.682q-2.64 2.083-6.817 3.1t-8.361 1.018q-6.327 0-11.328-2.064-5.011-2.054-7.901-5.961-2.89-3.898-2.89-9.427m61.019 16.032h-21.264V7.716h21.264v42.336Zm27.763 0h-21.254V34.692q0-1.786-.893-2.583t-2.122-.893q-1.228-.086-2.236.221-1.018.307-1.258.672l4.915-15.792q2.208-.979 4.723-1.469 2.525-.49 4.983-.49 3.437 0 6.422 1.105 2.976 1.104 4.848 3.504 1.872 2.39 1.872 6.384V44.34Zm59.54-46.08h24.883q-1.354 5.779-2.67 11.52-1.324 5.75-2.678 11.52-1.353 5.779-2.668 11.52-1.325 5.75-2.612 11.52h-28.57l-3.686-23.098q0-.058-.028-.096l-.04-.029h-.028q-.028 0-.057.029-.03.038-.03.096l-3.628 23.098h-26.67l-2.207-9.216q-1.104-4.608-2.246-9.216-1.133-4.608-2.237-9.216t-2.246-9.216q-1.133-4.608-2.237-9.216h26.17q.49 3.139.95 6.297.46 3.168.922 6.298.46 3.139.95 6.297.5 3.168.922 6.298h.307l3.446-25.19h18.49l3.629 25.19h.124q.922-6.326 1.872-12.595.95-6.26 1.872-12.595m47.002 46.08h-21.254V32.359h21.254v14.285Zm-21.254-21.437V15.703h21.254v12.173l-.03.028-.028.03q-5.29 1.103-10.598 2.207Zm56.207 28.137h-4.185V.65h4.185Zm-.99-35.27q9.093-.182 15.054.74 5.962.92 9.399 2.86 3.446 1.93 4.857 4.733 1.41 2.793 1.41 6.23 0 4.119-2.543 7.133-2.553 3.005-6.95 4.944-4.387 1.93-10.07 2.851-5.684.922-11.952.922-7.008 0-12.807-1.037-5.808-1.046-10.022-3.14-4.205-2.082-6.413-5.308-2.218-3.226-2.035-7.651l25.257-3.322q-.49 2.15.46 3.38.95 1.228 2.67 1.756 1.718.519 3.446.519 1.287 0 2.266-.183.989-.182 1.66-.585.682-.404 1.047-1.047t.365-1.622q0-1.171-1.536-1.632t-5.462-.461h-1.296q-7.988 0-13.546-1.046t-8.966-2.919-4.944-4.425q-1.536-2.544-1.536-5.559 0-3.072 1.622-5.558 1.632-2.487 4.55-4.359 2.919-1.881 6.845-3.11 3.936-1.229 8.544-1.843 4.608-.615 9.58-.615 9.34 0 16.196 1.882 6.845 1.872 10.503 5.53 3.657 3.648 3.292 8.995l-24.825 3.071q.739-1.843.096-2.947-.653-1.104-2.093-1.565t-3.226-.461q-1.286 0-2.275.154-.98.153-1.66.518-.673.374-1.01.893-.335.518-.335 1.257 0 .864.49 1.325t1.565.586q1.075.115 2.736.115h1.257Zm59.674 14.688q3.255 0 5.03-1.171 1.786-1.162 1.844-3.187l18.989 6.201q-1.104 3.869-4.704 7.037-3.59 3.158-9.063 5.002-5.462 1.843-12.22 1.843-5.78 0-10.781-1.287-5.011-1.286-8.794-3.897-3.773-2.611-5.923-6.547t-2.15-9.159 2.15-9.149q2.15-3.936 5.923-6.547 3.783-2.611 8.823-3.897 5.04-1.296 10.752-1.296 5.836 0 10.723 1.296 4.877 1.286 8.41 3.964 3.532 2.67 5.47 6.759 1.94 4.08 1.94 9.677h-33.551v.057q0 .922.49 1.719.498.796 1.382 1.382.892.586 2.217.893 1.315.307 3.043.307m-.124-10.502q-3.015 0-4.983 1.075-1.958 1.075-1.958 3.033v.125h13.757q.067 0 .067-.029v-.096q0-.979-.528-1.747-.52-.768-1.44-1.286-.922-.528-2.18-.807-1.267-.268-2.735-.268"/></g><path fill="transparent" stroke="transparent" d="M721.5 0h557v69h-557z"/></g></svg>